<?xml version="1.0" encoding="iso-8859-1"?>
<!-- Uploaded to: SVG Repo, www.svgrepo.com, Generator: SVG Repo Mixer Tools -->
<svg version="1.1" id="Layer_1" xmlns="http://www.w3.org/2000/svg" xmlns:xlink="http://www.w3.org/1999/xlink" 
	 viewBox="0 0 512 512" xml:space="preserve">
<g>
	<path style="fill:#414042;" d="M300.207,250.024c-4.775,0-8.644-3.869-8.644-8.644v-48.523c0-4.775,3.869-8.644,8.644-8.644
		s8.644,3.869,8.644,8.644v48.523C308.851,246.153,304.98,250.024,300.207,250.024z"/>
	<path style="fill:#414042;" d="M193.456,275.961h-2.838c-19.331,0-36.474-11.594-43.671-29.536l-3.534-8.81
		c-1.777-4.43,0.373-9.464,4.804-11.241c4.432-1.778,9.465,0.372,11.242,4.805l3.534,8.809c4.553,11.35,15.395,18.684,27.625,18.684
		h2.838c4.775,0,8.644,3.869,8.644,8.644S198.231,275.961,193.456,275.961z"/>
	<path style="fill:#414042;" d="M129.173,88.042c-4.201,0-7.885-3.067-8.535-7.346l-4.046-26.623
		c-0.717-4.721,2.528-9.128,7.247-9.845c4.715-0.712,9.128,2.526,9.845,7.247l4.046,26.623c0.717,4.721-2.528,9.128-7.247,9.845
		C130.043,88.009,129.605,88.042,129.173,88.042z"/>
	<path style="fill:#414042;" d="M204.6,412.618c-2.329,0-4.649-0.936-6.354-2.781c-3.239-3.508-3.02-8.976,0.489-12.215
		l29.967-27.662c1.596-1.474,3.689-2.292,5.863-2.292h36.118c4.775,0,8.644,3.869,8.644,8.644c0,4.775-3.869,8.644-8.644,8.644
		h-32.737l-27.484,25.369C208.8,411.86,206.697,412.618,204.6,412.618z"/>
	<rect x="279.255" y="292.36" style="fill:#414042;" width="36.006" height="58.36"/>
</g>
<path style="fill:#2F2F30;" d="M302.302,292.355h-23.044v16.712l0,0c12.727,0,23.044,10.318,23.044,23.044v18.604h12.966v-41.648
	v-16.712L302.302,292.355L302.302,292.355z"/>
<path style="fill:#414042;" d="M400.554,352.88c-0.644,0-1.297-0.073-1.95-0.224l-32.476-7.492c-2.906-0.67-5.259-2.789-6.23-5.606
	l-14.983-43.487c-1.556-4.513,0.842-9.434,5.356-10.989c4.522-1.555,9.435,0.843,10.989,5.356l13.423,38.958l27.807,6.415
	c4.652,1.073,7.554,5.713,6.48,10.365C408.046,350.174,404.488,352.88,400.554,352.88z"/>
<path style="fill:#58595B;" d="M364.432,473.897L364.432,473.897c-22.416,0-40.589-18.173-40.589-40.589v-83.492h-53.161v83.492
	c0,22.416-18.173,40.589-40.589,40.589l0,0c-8.258,0-14.952,6.694-14.952,14.952v14.507h55.541h53.16h55.541v-14.507
	C379.383,480.591,372.689,473.897,364.432,473.897z"/>
<g>
	<path style="fill:#414042;" d="M364.431,473.897L364.431,473.897c-22.416,0-40.589-18.173-40.589-40.589v-65.64v-17.852h-12.966
		h-40.193v17.852h28.21c6.618,0,11.982,5.365,11.982,11.982v53.658c0,22.416,18.173,40.589,40.589,40.589l0,0
		c8.258,0,14.952,6.694,14.952,14.952v14.507h12.966v-14.507C379.383,480.591,372.688,473.897,364.431,473.897z"/>
	<circle style="fill:#414042;" cx="297.258" cy="379.194" r="8.644"/>
</g>
<path style="fill:#ED4850;" d="M374.608,293.253H219.393c-14.325,0-25.937-11.612-25.937-25.937l0,0
	c0-4.383,1.087-8.513,3.007-12.133c4.353-8.211,12.988-13.804,22.93-13.804h155.215c8.953,0,16.846,4.536,21.508,11.436
	c0.513,0.76,0.988,1.549,1.42,2.363c1.921,3.621,3.009,7.753,3.009,12.139l0,0C400.546,281.641,388.933,293.253,374.608,293.253z"/>
<path style="fill:#E0273D;" d="M374.608,268.993H219.393c-9.941,0-18.572-5.596-22.926-13.807c-1.92,3.62-3.012,7.748-3.012,12.131
	l0,0c0,14.325,11.612,25.937,25.937,25.937h155.215c14.324,0,25.937-11.612,25.937-25.937l0,0c0-4.383-1.091-8.511-3.012-12.131
	C393.181,263.397,384.55,268.993,374.608,268.993z"/>
<path style="fill:#E6E7E8;" d="M323.426,192.856H146.924c-9.866,0-17.865-7.998-17.865-17.865l0,0
	c0-9.866,7.999-17.865,17.865-17.865h176.502c6.61,0,12.381,3.589,15.471,8.925c1.523,2.629,2.394,5.682,2.394,8.939l0,0
	C341.291,184.859,333.293,192.856,323.426,192.856z"/>
<path style="fill:#D1D3D4;" d="M323.426,174.992H146.924c-6.609,0-12.365-3.597-15.455-8.932c-1.524,2.63-2.41,5.675-2.41,8.932
	c0,9.867,7.998,17.865,17.865,17.865h176.502c9.866,0,17.865-7.998,17.865-17.865c0-3.257-0.886-6.302-2.41-8.932
	C335.792,171.394,330.035,174.992,323.426,174.992z"/>
<path style="fill:#ED4850;" d="M132.362,219.214l-18.093-119.06c-1.482-9.754,5.223-18.864,14.978-20.346l0,0
	c3.602-0.547,7.116,0.022,10.19,1.449c5.251,2.438,9.221,7.376,10.155,13.529l18.093,119.06c1.223,8.047-3.127,15.655-10.163,18.904
	c-1.493,0.689-3.107,1.183-4.814,1.442l0,0C142.954,235.674,133.844,228.969,132.362,219.214z"/>
<path style="fill:#E0273D;" d="M147.359,219.214l-18.093-119.06c-1.223-8.046,3.134-15.641,10.169-18.892
	c-3.074-1.427-6.586-2.002-10.188-1.455l0,0c-9.754,1.482-16.46,10.592-14.978,20.346l18.093,119.06
	c1.482,9.754,10.592,16.46,20.346,14.978c1.708-0.259,3.316-0.765,4.809-1.455C152.265,230.3,148.294,225.367,147.359,219.214z"/>
<path style="fill:#ED4850;" d="M104.792,37.796l-2.621-17.245c-1.482-9.754,5.223-18.864,14.978-20.346l0,0
	c2.158-0.327,4.284-0.255,6.302,0.163c7.109,1.471,12.889,7.219,14.044,14.815l2.621,17.245c1.154,7.594-2.654,14.797-9,18.314
	c-1.806,1-3.816,1.703-5.977,2.032l0,0C115.383,54.256,106.275,47.55,104.792,37.796z"/>
<path style="fill:#E0273D;" d="M117.065,35.93l-2.621-17.244c-1.154-7.593,2.666-14.778,9.011-18.296
	c-2.022-0.42-4.146-0.514-6.307-0.186l0,0c-9.754,1.482-16.46,10.591-14.978,20.346l2.621,17.245
	c1.482,9.754,10.592,16.46,20.346,14.978l0,0c2.161-0.328,4.161-1.049,5.967-2.05C124.001,49.249,118.22,43.523,117.065,35.93z"/>
<path style="fill:#414042;" d="M401.39,512H193.135c-4.775,0-8.644-3.869-8.644-8.644s3.869-8.644,8.644-8.644H401.39
	c4.775,0,8.644,3.869,8.644,8.644S406.164,512,401.39,512z"/>
</svg>