<?xml version="1.0" encoding="iso-8859-1"?>
<!-- Uploaded to: SVG Repo, www.svgrepo.com, Generator: SVG Repo Mixer Tools -->
<svg fill="#000000" height="800px" width="800px" version="1.1" id="Layer_1" xmlns="http://www.w3.org/2000/svg" xmlns:xlink="http://www.w3.org/1999/xlink" 
	 viewBox="0 0 512 512" xml:space="preserve">
<g>
	<g>
		<path d="M443.733,238.933H409.6c-18.773,0-34.133,15.36-34.133,34.133c0,18.773,15.36,34.133,34.133,34.133h7.68
			c-3.413,17.067-17.067,30.72-34.133,33.28c-4.267-18.773-21.333-33.28-41.813-33.28h-76.8v-8.533h102.4v-85.333
			c0-37.547-30.72-68.267-68.267-68.267h-34.133V128h59.733V85.333c0-34.987-26.453-63.147-59.733-67.413V8.533
			C264.533,3.413,261.12,0,256,0c-5.12,0-8.533,3.413-8.533,8.533v9.387c-33.28,4.267-59.733,33.28-59.733,67.413V128h59.733v17.067
			h-34.133c-37.547,0-68.267,30.72-68.267,68.267v85.333h102.4v8.533h-76.8c-20.48,0-37.547,14.507-41.813,33.28
			c-17.067-3.413-30.72-16.213-34.133-33.28h7.68c18.773,0,34.133-15.36,34.133-34.133c0-18.773-15.36-34.133-34.133-34.133H68.267
			c-18.773,0-34.133,15.36-34.133,34.133c0,18.773,15.36,34.133,34.133,34.133h9.387c3.413,26.453,24.747,46.933,51.2,50.347
			c3.413,19.627,21.333,34.987,41.813,34.987H230.4V409.6h-8.533v49.493c-12.8,7.68-22.187,20.48-24.747,35.84h-52.053
			c-5.12,0-8.533,3.413-8.533,8.533s3.413,8.533,8.533,8.533h51.2h119.467h51.2c5.12,0,8.533-3.413,8.533-8.533
			s-3.413-8.533-8.533-8.533H314.88c-2.56-15.36-11.947-28.16-24.747-35.84V409.6H281.6v-17.067h59.733
			c20.48,0,38.4-15.36,41.813-34.987c26.453-3.413,47.787-23.893,51.2-50.347h9.387c18.773,0,34.133-15.36,34.133-34.133
			C477.867,254.293,462.507,238.933,443.733,238.933z M247.467,392.533h17.067V409.6h-17.067V392.533z M297.813,494.933H215.04
			c3.413-14.507,17.067-25.6,33.28-25.6h17.067C280.747,469.333,293.547,480.427,297.813,494.933z"/>
	</g>
</g>
</svg>