<?xml version="1.0" encoding="iso-8859-1"?>
<!-- Uploaded to: SVG Repo, www.svgrepo.com, Generator: SVG Repo Mixer Tools -->
<svg fill="#000000" height="800px" width="800px" version="1.1" id="Layer_1" xmlns="http://www.w3.org/2000/svg" xmlns:xlink="http://www.w3.org/1999/xlink" 
	 viewBox="0 0 464.33 464.33" xml:space="preserve">
<g id="XMLID_340_">
	<g>
		<g>
			<path d="M161.472,82.697c3.941,0.479,7.719,0,11.143-1.223c6.604,8.066,16.637,13.215,27.874,13.215
				c19.888,0,36.01-16.122,36.01-36.01c0-2.757-0.32-5.438-0.907-8.017c5.224-10.681,11.713-29.802,0.104-43.334
				c-1.657-1.931-4.819-1.102-5.381,1.38c-1.187,5.235-4.233,13.01-12.055,18.656c-5.245-2.983-11.306-4.695-17.77-4.695
				c-11.238,0-21.27,5.149-27.874,13.215c-2.543-0.908-5.281-1.406-8.136-1.406c-13.841,0-24.968,11.619-24.159,25.635
				C140.986,71.663,149.988,81.301,161.472,82.697z"/>
			<path d="M381.072,52.345c0-29.352-16.691-52.345-38-52.345c-21.309,0-38,22.993-38,52.345c0,24.566,11.695,44.667,28,50.572
				v20.675l-44.27,14.194l-50.213-25.809c-2.475-1.272-5.218-1.936-8-1.936c-26.135,0-34.114,0-60.2,0
				c-18.281,0-28.274,9.039-37.089,17.014c0,0-19.971,17.711-44.226,39.399c-7.262,6.512-7.795,17.708-1.197,24.879l39.5,42.934
				c4.155,4.516,10.549,6.718,17.037,5.136l-12.859,66.394c-1.158,5.976,3.449,11.498,9.476,11.498c3.7,0,8.15,0,13.108,0v126.034
				c0,11.598,9.402,21,21,21c11.598,0,21-9.402,21-21V317.296c2.898,0,5.805,0,8.702,0V443.33c0,11.598,9.402,21,21,21
				c11.598,0,21-9.402,21-21V317.296c4.959,0,9.409,0,13.108,0c6.059,0,10.632-5.529,9.476-11.498
				c-27.673-142.88-22.989-115.578-27.539-152.774l37.36,19.203c4.123,2.12,8.922,2.517,13.343,1.1l40.483-12.98V169
				c0,5.523,4.477,10,10,10c5.522,0,10-4.477,10-10v-15.266c7.731-3.734,11.742-12.667,9.046-21.077
				c-1.522-4.748-4.887-8.381-9.046-10.395v-19.345C369.376,97.011,381.072,76.91,381.072,52.345z M150.544,207.755l-24.891-27.054
				c2.63-2.348,33.728-30.02,33.728-30.02C154.713,188.845,156.729,175.821,150.544,207.755z M343.072,84.689
				c-8.514,0-18-13.283-18-32.344c0-19.061,9.486-32.345,18-32.345c8.514,0,18,13.284,18,32.345
				C361.072,71.406,351.586,84.689,343.072,84.689z"/>
		</g>
	</g>
</g>
</svg>