<?xml version="1.0" encoding="iso-8859-1"?>
<!-- Uploaded to: SVG Repo, www.svgrepo.com, Generator: SVG Repo Mixer Tools -->
<svg fill="#000000" height="800px" width="800px" version="1.1" id="Layer_1" xmlns="http://www.w3.org/2000/svg" xmlns:xlink="http://www.w3.org/1999/xlink" 
	 viewBox="0 0 460.962 460.962" xml:space="preserve">
<g id="XMLID_23_">
	<g>
		<g>
			<path d="M410.092,331.521l-77.8-67.062c-6.358,9.587-15.909,22.038-29.154,34.571c-0.234,0.221-0.459,0.441-0.695,0.662
				c-10.441,9.784-24.052,20.336-41.045,29.384c-23.355,12.436-53.113,22.021-89.851,22.86v68.008h-70.596
				c-11.327,0-20.509,9.182-20.509,20.509c0,11.327,9.182,20.509,20.509,20.509h231.043c11.327,0,20.509-9.182,20.509-20.509
				c0-11.327-9.182-20.509-20.509-20.509h-70.596v-81.41l33.739-0.152c11.327-0.051,20.468-9.274,20.417-20.601
				c-0.01-2.091-0.335-4.106-0.925-6.004l64.533,55.626c9.908,8.541,24.864,7.433,33.406-2.476
				C421.109,355.018,420,340.061,410.092,331.521z"/>
			<circle cx="114.967" cy="43.568" r="43.568"/>
			<path d="M141.163,339.077c0.031,0,0.062,0,0.093,0l12.853-0.058L90.266,156.317l-8.417-18.604
				c-4.67-10.319-16.821-14.9-27.14-10.231c-10.319,4.669-14.901,16.82-10.231,27.139l78,172.401
				C125.799,334.364,133.11,339.077,141.163,339.077z"/>
			<path d="M105.088,132.775c-2.31,5.439-2.244,11.65,0.181,17.04c0.097,0.215,0.185,0.435,0.262,0.658l64.702,185.16
				c47.079-0.835,87.613-16.772,120.542-47.401c19.603-18.233,30.718-36.711,34.84-44.347
				c-11.774-19.894-68.844-112.792-122.215-138.318c-6.087-2.911-13.013-4.388-20.585-4.388c-6.28,0-12.914,1.088-18.2,2.985
				l-47.138,16.912C111.914,123.071,107.399,127.335,105.088,132.775z"/>
		</g>
	</g>
</g>
</svg>