<?xml version="1.0" encoding="iso-8859-1"?>
<!-- Uploaded to: SVG Repo, www.svgrepo.com, Generator: SVG Repo Mixer Tools -->
<!DOCTYPE svg PUBLIC "-//W3C//DTD SVG 1.1//EN" "http://www.w3.org/Graphics/SVG/1.1/DTD/svg11.dtd">
<svg fill="#000000" version="1.1" id="Capa_1" xmlns="http://www.w3.org/2000/svg" xmlns:xlink="http://www.w3.org/1999/xlink" 
	 width="800px" height="800px" viewBox="0 0 361.348 361.348"
	 xml:space="preserve">
<g>
	<polygon points="279.894,13.119 335.115,68.334 323.811,79.638 273.157,28.982 266.244,35.907 316.875,86.562 304.872,98.578 
		254.205,47.923 247.28,54.859 297.935,105.514 284.81,118.627 234.167,67.978 227.23,74.903 277.897,125.552 264.772,138.671 
		214.128,88.016 207.204,94.94 257.836,145.59 244.722,158.709 194.079,108.06 187.149,114.984 237.798,165.634 227.23,176.213 
		176.581,125.552 169.656,132.488 220.305,183.126 207.192,196.257 156.537,145.602 149.619,152.526 200.268,203.182 
		187.149,216.295 136.499,165.646 129.563,172.57 180.212,223.219 167.111,236.345 116.456,185.684 109.525,192.602 160.186,243.27 
		146.699,256.756 96.032,206.101 89.114,213.014 139.763,263.669 126.644,276.794 75.994,226.139 69.07,233.063 119.725,283.73 
		106.618,296.832 55.957,246.177 49.032,253.113 99.681,303.768 86.562,316.869 35.913,266.238 28.988,273.15 79.643,323.807 
		68.328,335.109 13.125,279.9 0.005,293.014 68.328,361.348 361.342,68.334 293.019,0 	"/>
</g>
</svg>