<?xml version="1.0" encoding="iso-8859-1"?>
<!-- Uploaded to: SVG Repo, www.svgrepo.com, Generator: SVG Repo Mixer Tools -->
<svg fill="#000000" height="800px" width="800px" version="1.1" id="Layer_1" xmlns="http://www.w3.org/2000/svg" xmlns:xlink="http://www.w3.org/1999/xlink" 
	 viewBox="0 0 461.138 461.138" xml:space="preserve">
<g id="XMLID_677_">
	<g>
		<g>
			<circle cx="226.364" cy="37.954" r="37.954"/>
			<path d="M452.033,74.801l-2.775-23.323c-0.401-3.372-2.698-6.217-5.91-7.321c-3.212-1.103-6.772-0.271-9.161,2.143l-21.988,2.616
				c-6.426-6.575-15.723-10.204-25.558-9.034c-16.813,2-28.82,17.251-26.82,34.064c0.547,4.598,2.091,8.833,4.382,12.525
				l-8.503,33.545c-2.445,0.901-4.742,2.32-6.694,4.298l-27.487,27.838l-2.584-22.178c-0.731-23.245-19.926-41.967-43.316-41.967
				c-5.301,0-69.76,0-98.509,0c-23.391,0-42.585,18.722-43.317,41.967l-3.476,29.831l-45.921-16.659
				c-0.238-0.086-0.478-0.144-0.717-0.22c6.843-2.354,12.019-8.443,12.915-15.989c1.256-10.584-6.333-20.217-16.917-21.473
				c-7.622-0.906-14.971,2.767-18.873,9.315l-3.54-0.42l1.299-10.943c1.045-8.806-2.787-17.483-9.999-22.643
				c-0.604-0.432-1.391-0.513-2.07-0.213c-0.679,0.3-1.15,0.936-1.237,1.673l-3.593,30.274l-30.274-3.593
				c-0.737-0.088-1.466,0.221-1.916,0.811c-0.451,0.59-0.556,1.374-0.277,2.062c3.328,8.22,10.867,13.976,19.674,15.021
				l10.943,1.299l-0.419,3.531c-7.12,2.207-12.555,8.426-13.475,16.177c-1.259,10.609,6.306,20.214,16.917,21.473
				c6.547,0.777,12.946-1.812,17.137-6.854c0.768,6.682,5.182,12.693,11.934,15.143l67.678,24.552
				c11.103,4.028,23.07-3.371,24.436-15.096c6.758-58.005,6.372-54.269,6.379-55.721c0-0.003,0-0.005,0-0.008
				c0.013-2.002,1.643-3.617,3.645-3.61c2.002,0.006,3.622,1.631,3.622,3.634l0.008,307.834c0,12.137,9.839,21.976,21.976,21.976
				c12.137,0,21.976-9.839,21.976-21.976V263.506h9.489V439.16c0,12.137,9.839,21.976,21.976,21.976
				c12.137,0,21.976-9.839,21.976-21.976c0-286.759-0.389-129.636-0.398-307.67c0-2.023,1.577-3.697,3.596-3.817
				c2.02-0.12,3.786,1.354,4.023,3.364c0.114,0.969,0.11,1.808,0.168,2.301l7.102,60.948c1.78,15.279,20.485,21.622,31.221,10.747
				l54.293-54.987c4.162-4.215,5.842-9.936,5.089-15.383l8.549-33.726c1.701,0.084,3.43,0.036,5.178-0.172
				c9.836-1.17,18.021-6.879,22.725-14.779l21.983-2.615c2.889,1.786,6.545,1.76,9.408-0.067
				C450.869,81.478,452.434,78.173,452.033,74.801z M51.399,150.839c-0.408,3.436-3.56,5.956-7.031,5.54
				c-3.472-0.412-5.952-3.556-5.54-7.031c0.378-3.184,3.073-5.585,6.269-5.585C48.917,143.762,51.845,147.079,51.399,150.839z
				 M64.359,148.334c-0.533-5.969-3.857-11.565-9.366-14.846l0.419-3.53l3.53,0.419c1.884,6.071,6.627,10.921,12.928,12.789
				C68.996,144.218,66.406,145.989,64.359,148.334z M76.653,130.943c-3.466-0.412-5.951-3.566-5.54-7.032
				c0.378-3.184,3.073-5.585,6.27-5.585c0.252,0,0.508,0.016,0.762,0.046c3.466,0.412,5.951,3.566,5.539,7.032
				C83.277,128.839,80.121,131.35,76.653,130.943z M391.816,83.371c-7.087,0.843-13.734-4.222-14.599-11.494
				c-0.866-7.278,4.413-13.757,11.494-14.599c7.205-0.858,13.742,4.289,14.599,11.494C404.167,75.977,399.021,82.513,391.816,83.371
				z"/>
		</g>
	</g>
</g>
</svg>