<?xml version="1.0" encoding="iso-8859-1"?>
<!-- Uploaded to: SVG Repo, www.svgrepo.com, Generator: SVG Repo Mixer Tools -->
<svg fill="#000000" height="800px" width="800px" version="1.1" id="Layer_1" xmlns="http://www.w3.org/2000/svg" xmlns:xlink="http://www.w3.org/1999/xlink" 
	 viewBox="0 0 461.337 461.337" xml:space="preserve">
<g id="XMLID_232_">
	<g>
		<g>
			<circle cx="92.292" cy="42.34" r="37.285"/>
			<path d="M148.403,215.256c-4.918,3.477-10.7,5.231-16.549,5.231c-12.701,0-23.659-8.413-27.356-20.08
				c-3.624,11.656-14.638,19.931-27.368,19.591L35.474,218.9l-14.559,75.17c-0.567,2.929,0.205,5.958,2.102,8.26
				c1.897,2.302,4.726,3.646,7.709,3.646c4.311,0,9.58,0,15.508,0v130.498c0,10.94,8.869,19.808,19.809,19.808
				s19.809-8.868,19.809-19.808V305.975c4.284,0,8.596,0,12.88,0v130.498c0,10.94,8.869,19.808,19.809,19.808
				s19.809-8.868,19.809-19.808V305.975c5.928,0,11.197,0,15.507,0c2.986,0,5.815-1.335,7.713-3.639
				c1.899-2.304,2.666-5.336,2.098-8.267L148.403,215.256z"/>
			<path d="M168.285,157.046c0.836-1.812-0.491-3.882-2.484-3.882c-0.064,0-0.128,0.002-0.193,0.007l-28.617,2.021l-2.021-28.617
				c-0.148-2.089-2.481-3.224-4.213-2.106c-6.695,4.323-10.506,11.949-9.945,19.899l0.841,11.907l-3.471,0.245
				c-3.437-6.452-10.353-10.529-18.026-9.986c-9.709,0.686-17.185,8.558-17.563,18.087c10.526,1.797,18.977,9.465,21.982,19.442
				c6.868-1.132,12.394-5.931,14.683-12.205l3.479-0.246l0.245,3.471c-6.409,3.414-10.533,10.312-9.986,18.027v-0.001
				c0.703,9.955,9.027,17.587,18.858,17.587c0.001,0,0.001,0,0.001,0c11.033,0,19.659-9.334,18.885-20.253
				c-0.542-7.677-5.614-13.955-12.419-16.436l-0.246-3.48l11.907-0.841C157.932,169.128,164.946,164.283,168.285,157.046z
				 M101.49,171.602c-3.202,0-5.952-2.498-6.183-5.759c-0.24-3.418,2.329-6.374,5.745-6.616c0.149-0.01,0.298-0.016,0.446-0.016
				c3.193,0,5.937,2.467,6.17,5.758C107.919,168.56,105.082,171.602,101.49,171.602z M131.864,197.974
				c-3.225,0-5.946-2.486-6.177-5.758v-0.001c-0.241-3.415,2.328-6.374,5.744-6.616c0.147-0.01,0.294-0.016,0.441-0.016
				c3.218,0,5.945,2.499,6.176,5.76C138.301,194.926,135.467,197.974,131.864,197.974z"/>
			<path d="M455.968,225.874c-3.281-1.582-7.178-1.147-10.029,1.121h-23.75c-6.011-7.818-15.452-12.861-26.076-12.861
				c-18.16,0-32.882,14.721-32.882,32.881c0,4.967,1.108,9.673,3.079,13.895l-20.743,54.01h-4.356v-38.127
				c0-2.399-1.945-4.345-4.344-4.345h-6.145v-40.791c0-2.399-1.945-4.344-4.344-4.344h-7.312c-2.399,0-4.345,1.945-4.345,4.344
				v40.791h-6.145c-2.399,0-4.345,1.945-4.345,4.345v38.127h-9.912v-48.794c0-2.399-1.945-4.345-4.344-4.345h-2.195
				c2.064-1.052,3.479-3.191,3.479-5.666c0-3.514-2.848-6.362-6.362-6.362h-18.134c-3.514,0-6.362,2.848-6.362,6.362
				c0,2.475,1.416,4.615,3.479,5.666h-2.196c-2.399,0-4.345,1.945-4.345,4.345v48.794H241.97v-48.882
				c0-5.406-4.383-9.788-9.788-9.788h-20.311c-1.945-4.965-21.018-53.726-35.708-93.122c-4.08,7.425-10.934,12.856-18.963,15.168
				c1.861,3.484,3.015,7.373,3.303,11.456c0.4,5.648-0.846,11.159-3.548,15.99c12.109,31.758,23.518,60.872,24.343,62.977
				c3.327,8.486,12.903,12.67,21.394,9.342c1.454-0.57,2.771-1.335,3.956-2.235h15.749v48.882v121.785
				c0,5.406,4.383,9.788,9.788,9.788c5.405,0,9.788-4.382,9.788-9.788v-31.791H387.74v31.791c0,5.406,4.382,9.788,9.788,9.788
				s9.788-4.382,9.788-9.788V324.708c0-5.406-4.383-9.788-9.788-9.788h-20.582l13.633-35.496c1.801,0.306,3.649,0.473,5.537,0.473
				c10.624,0,20.065-5.043,26.076-12.861h23.75c2.851,2.268,6.748,2.704,10.029,1.121c3.281-1.582,5.366-4.903,5.366-8.546v-25.192
				C461.335,230.777,459.249,227.456,455.968,225.874z M396.114,261.108c-7.652,0-14.092-6.234-14.092-14.092
				c0-7.862,6.443-14.092,14.092-14.092c7.783,0,14.092,6.309,14.092,14.092C410.206,254.799,403.897,261.108,396.114,261.108z"/>
			<path d="M94.366,192.547c0.24-9.113-6.953-16.696-16.067-16.936l-38.55-1.017c2.51-7.04,5.11-14.369,7.554-21.331l-1.236,10.105
				l26.747,0.705c0.671-15.081,13.09-27.375,28.704-27.375c0,0,0.002,0,0.003,0c3.351,0,6.65,0.591,9.756,1.719
				c0.624-4.434,2.184-8.659,4.538-12.41c3.253-5.183,9.7-11.763,16.425-11.763c6.668,0,12.038,5.205,12.492,11.641l1.332,18.854
				c20.34-1.436,20.067-1.706,22.985-0.921c-6.59-18.18-14.227-50.825-45.593-50.825c-26.995,0-35.553,0-62.332,0
				c-18.553,0-32.076,11.978-40.194,35.603c-5.634,16.395-14.054,39.932-19.946,56.313c-3.799,10.567,3.856,21.791,15.099,22.088
				l61.346,1.617C86.406,208.874,94.123,201.768,94.366,192.547z"/>
		</g>
	</g>
</g>
</svg>