<?xml version="1.0" encoding="iso-8859-1"?>
<!-- Uploaded to: SVG Repo, www.svgrepo.com, Generator: SVG Repo Mixer Tools -->
<svg fill="#000000" version="1.1" id="Layer_1" xmlns="http://www.w3.org/2000/svg" xmlns:xlink="http://www.w3.org/1999/xlink" 
	 viewBox="0 0 512 512" xml:space="preserve">
<g>
	<g>
		<g>
			<path d="M503.467,153.6c4.719,0,8.533-3.814,8.533-8.533s-3.814-8.533-8.533-8.533H460.8V128h42.667
				c4.719,0,8.533-3.814,8.533-8.533s-3.814-8.533-8.533-8.533H460.8V102.4h34.133c4.719,0,8.533-3.814,8.533-8.533
				c0-4.719-3.814-8.533-8.533-8.533H460.8V76.8h25.6c4.719,0,8.533-3.814,8.533-8.533s-3.814-8.533-8.533-8.533h-25.6V51.2h17.067
				c4.719,0,8.533-3.814,8.533-8.533s-3.814-8.533-8.533-8.533H460.8V25.6h8.533c4.719,0,8.533-3.814,8.533-8.533
				s-3.814-8.533-8.533-8.533H460.8c0-4.719-3.814-8.533-8.533-8.533c-4.719,0-8.533,3.814-8.533,8.533H435.2
				c-4.719,0-8.533,3.814-8.533,8.533s3.814,8.533,8.533,8.533h8.533v8.533h-17.067c-4.719,0-8.533,3.814-8.533,8.533
				s3.814,8.533,8.533,8.533h17.067v8.533h-25.6c-4.719,0-8.533,3.814-8.533,8.533s3.814,8.533,8.533,8.533h25.6v8.533H409.6
				c-4.719,0-8.533,3.814-8.533,8.533c0,4.719,3.814,8.533,8.533,8.533h34.133v8.533h-42.667c-4.719,0-8.533,3.814-8.533,8.533
				s3.814,8.533,8.533,8.533h42.667v8.533h-42.667c-4.719,0-8.533,3.814-8.533,8.533s3.814,8.533,8.533,8.533h42.667v8.533h-42.667
				c-4.719,0-8.533,3.814-8.533,8.533s3.814,8.533,8.533,8.533h42.667v8.533h-42.667c-4.719,0-8.533,3.814-8.533,8.533
				s3.814,8.533,8.533,8.533h42.667v8.533H409.6c-4.719,0-8.533,3.814-8.533,8.533s3.814,8.533,8.533,8.533h34.133v8.533h-25.6
				c-4.719,0-8.533,3.814-8.533,8.533s3.814,8.533,8.533,8.533h25.6v8.533h-17.067c-4.719,0-8.533,3.814-8.533,8.533
				c0,4.719,3.814,8.533,8.533,8.533h17.067v34.133h-10.325c-13.124,0-23.808,10.684-23.808,23.808V358.4h-17.067V512H512V358.4
				h-17.067v-18.859c0-13.124-10.684-23.808-23.808-23.808H460.8V281.6h17.067c4.719,0,8.533-3.814,8.533-8.533
				c0-4.719-3.814-8.533-8.533-8.533H460.8V256h25.6c4.719,0,8.533-3.814,8.533-8.533s-3.814-8.533-8.533-8.533h-25.6V230.4h34.133
				c4.719,0,8.533-3.814,8.533-8.533s-3.814-8.533-8.533-8.533H460.8V204.8h42.667c4.719,0,8.533-3.814,8.533-8.533
				s-3.814-8.533-8.533-8.533H460.8V179.2h42.667c4.719,0,8.533-3.814,8.533-8.533s-3.814-8.533-8.533-8.533H460.8V153.6H503.467z
				 M471.125,332.8c3.721,0,6.741,3.021,6.741,6.741V358.4h-51.2v-18.859c0-3.721,3.021-6.741,6.741-6.741H471.125z"/>
			<path d="M324.267,132.448c1.971-9.583,0.503-18.125-5.205-23.834c-6.605-6.605-16.922-7.987-29.056-3.968
				c-10.129,3.388-20.847,10.368-30.157,19.686c-16.768,16.768-24.363,35.968-20.915,49.493v107.776h-17.067v42.667h119.467v-42.667
				h-17.067V132.448z M307.2,281.602H256v-92.177c1.331,0.213,2.731,0.307,4.173,0.316c0.085,0.008,0.171,0.026,0.265,0.026
				c0.256,0,0.555-0.068,0.819-0.077c1.434-0.034,2.91-0.171,4.429-0.401c0.563-0.085,1.118-0.179,1.698-0.29
				c1.886-0.375,3.814-0.836,5.811-1.502c10.129-3.371,20.838-10.351,30.157-19.669c1.331-1.34,2.611-2.705,3.849-4.096V281.602z
				 M307.627,129.282c-0.051,0.154-0.154,0.273-0.196,0.427c-0.469,1.954-1.186,3.994-2.074,6.05
				c-0.111,0.247-0.222,0.495-0.333,0.751c-0.811,1.775-1.783,3.584-2.867,5.393c-0.239,0.401-0.444,0.794-0.7,1.195
				c-1.161,1.835-2.466,3.652-3.874,5.461c-0.247,0.316-0.435,0.623-0.691,0.939c-1.715,2.133-3.584,4.233-5.606,6.263
				c-7.373,7.364-15.932,13.03-23.492,15.556c-6.494,2.15-10.3,1.434-11.588,0.154c-0.256-0.265-0.393-0.725-0.572-1.118
				c-0.043-0.12-0.077-0.145-0.128-0.29c-0.043-0.137-0.154-0.23-0.213-0.367c-1.493-5.487,2.765-19.439,16.623-33.297
				c12.134-12.134,24.371-16.922,30.899-16.922c1.954,0,3.396,0.427,4.181,1.203C308.284,121.977,308.591,125.083,307.627,129.282z"
				/>
			<path d="M162.133,25.6c4.719,0,8.533-3.814,8.533-8.533s-3.814-8.533-8.533-8.533H76.8h-8.533H41.284
				C18.517,8.533,0,27.051,0,49.818v403.831c0,22.767,18.517,41.284,41.284,41.284h26.982H76.8h85.333
				c4.719,0,8.533-3.814,8.533-8.533s-3.814-8.533-8.533-8.533H76.8v-25.6h85.333c4.719,0,8.533-3.814,8.533-8.533
				c0-4.719-3.814-8.533-8.533-8.533H76.8v-25.6h85.333c4.719,0,8.533-3.814,8.533-8.533c0-4.719-3.814-8.533-8.533-8.533H76.8
				v-25.6h85.333c4.719,0,8.533-3.814,8.533-8.533s-3.814-8.533-8.533-8.533H76.8v-25.6h85.333c4.719,0,8.533-3.814,8.533-8.533
				s-3.814-8.533-8.533-8.533H76.8v-25.6h85.333c4.719,0,8.533-3.814,8.533-8.533c0-4.719-3.814-8.533-8.533-8.533H76.8v-25.6
				h85.333c4.719,0,8.533-3.814,8.533-8.533s-3.814-8.533-8.533-8.533H76.8v-25.6h85.333c4.719,0,8.533-3.814,8.533-8.533
				s-3.814-8.533-8.533-8.533H76.8v-25.6h85.333c4.719,0,8.533-3.814,8.533-8.533s-3.814-8.533-8.533-8.533H76.8v-25.6h85.333
				c4.719,0,8.533-3.814,8.533-8.533s-3.814-8.533-8.533-8.533H76.8v-25.6h85.333c4.719,0,8.533-3.814,8.533-8.533
				s-3.814-8.533-8.533-8.533H76.8V25.6H162.133z"/>
			<rect x="221.867" y="341.333" width="119.467" height="170.667"/>
		</g>
	</g>
</g>
</svg>